{"title":"Pathfinder 2007 UNRATED BRRip H264 AAC-MS","uid":5649838,"size":1706863996,"categoryP":"video","categoryS":"hd___movies","magnet":"?xt=urn:btih:bf72608b846f65fefe8e2b31a956cac7de736175&amp;dn=Pathfinder+2007+UNRATED+BRRip+H264+AAC-MS&amp;tr=udp%3A%2F%2Ftracker.openbittorrent.com%3A80&amp;tr=udp%3A%2F%2Fopen.demonii.com%3A1337&amp;tr=udp%3A%2F%2Ftracker.coppersurfer.tk%3A6969&amp;tr=udp%3A%2F%2Fexodus.desync.com%3A6969","seeders":0,"leechers":1,"uploader":"rev-x","files":6,"time":1277615972,"description":"Pathfinder 2007 UNRATED BRRip H264-MS.mp4\nFormat : MPEG-4\nFormat profile : Base Media\nCodec ID : isom\nFile size : 1.59 GiB\nDuration : 1h 47mn\nOverall bit rate : 2 123 Kbps &lt;a href=&quot;\nhttp://www.imdb.com/title/tt0446013/&quot; rel=&quot;nofollow&quot; target=&quot;_NEW&quot;&gt;\nhttp://www.imdb.com/title/tt0446013/&lt;/a&gt;\n\nVideo #1\nFormat : AVC\nFormat/Info : Advanced Video Codec\nFormat profile : &lt;a class=&quot;__cf_email__&quot; href=&quot;/cdn-cgi/l/email-protection&quot; data-cfemail=&quot;f8b0919f90b8b4ccd6c9&quot;&gt;[email&amp;#160;protected]&lt;/a&gt;&lt;script cf-hash='f9e31' type=&quot;text/javascript&quot;&gt;\n/* &lt;![CDATA[ */!function(){try{var t=&quot;currentScript&quot;in document?document.currentScript:function(){for(var t=document.getElementsByTagName(&quot;script&quot;),e=t.length;e--;)if(t[e].getAttribute(&quot;cf-hash&quot;))return t[e]}();if(t&amp;&amp;t.previousSibling){var e,r,n,i,c=t.previousSibling,a=c.getAttribute(&quot;data-cfemail&quot;);if(a){for(e=&quot;&quot;,r=parseInt(a.substr(0,2),16),n=2;a.length-n;n+=2)i=parseInt(a.substr(n,2),16)^r,e+=String.fromCharCode(i);e=document.createTextNode(e),c.parentNode.replaceChild(e,c)}}}catch(u){}}();/* ]]&gt; */&lt;/script&gt;\nFormat settings, CABAC : Yes\nFormat settings, ReFrames : 3 frames\nCodec ID : avc1\nCodec ID/Info : Advanced Video Coding\nDuration : 1h 47mn\nBit rate mode : Variable\nBit rate : 1 800 Kbps\nMaximum bit rate : 7 758 Kbps\nWidth : 1 280 pixels\nHeight : 544 pixels\nDisplay aspect ratio : 2.35\nFrame rate mode : Constant\nFrame rate : 23.976 fps\nResolution : 24 bits\nColorimetry : 4:2:0\nScan type : Progressive\nBits/(Pixel*Frame) : 0.108\nStream size : 1.35 GiB (85%)\nWriting library : x264 core 98 r1649 c54c47d\n\nAudio #2\nFormat : AAC\nFormat/Info : Advanced Audio Codec\nFormat version : Version 4\nFormat profile : LC\nFormat settings, SBR : No\nCodec ID : 40\nDuration : 1h 47mn\nBit rate mode : Variable\nBit rate : 320 Kbps\nMaximum bit rate : 441 Kbps\nChannel(s) : 6 channels\nChannel positions : Front: L C R, Rear: L R, LFE\nSampling rate : 48.0 KHz\nResolution : 16 bits\nStream size : 245 MiB (15%)\n &lt;a href=&quot;\nhttp://subscene.com/english/Pathfinder/subtitle-342390.aspx&quot; rel=&quot;nofollow&quot; target=&quot;_NEW&quot;&gt;\nhttp://subscene.com/english/Pathfinder/subtitle-342390.aspx&lt;/a&gt;","torrent":{"xt":"urn:btih:bf72608b846f65fefe8e2b31a956cac7de736175","amp;dn":"Pathfinder+2007+UNRATED+BRRip+H264+AAC-MS","amp;tr":["udp%3A%2F%2Ftracker.openbittorrent.com%3A80","udp%3A%2F%2Fopen.demonii.com%3A1337","udp%3A%2F%2Ftracker.coppersurfer.tk%3A6969","udp%3A%2F%2Fexodus.desync.com%3A6969"],"infoHash":"bf72608b846f65fefe8e2b31a956cac7de736175","infoHashBuffer":{"type":"Buffer","data":[191,114,96,139,132,111,101,254,254,142,43,49,169,86,202,199,222,115,97,117]},"announce":[],"urlList":[]}}